<?xml version="1.0" standalone="no"?>
<!DOCTYPE svg PUBLIC "-//W3C//DTD SVG 20010904//EN"
 "http://www.w3.org/TR/2001/REC-SVG-20010904/DTD/svg10.dtd">
<svg version="1.0" xmlns="http://www.w3.org/2000/svg"
 width="140.000000pt" height="40.000000pt" viewBox="0 0 140.000000 40.000000"
 preserveAspectRatio="xMidYMid meet">
<metadata>
Created by potrace 1.10, written by Peter Selinger 2001-2011
</metadata>
<g transform="translate(0.000000,40.000000) scale(0.100000,-0.100000)"
fill="#000000" stroke="none">
<path d="M134 260 c-20 -22 -45 -42 -55 -45 -11 -4 -19 -10 -19 -15 0 -5 7 -7
15 -4 11 5 13 -1 8 -30 -4 -28 -2 -36 10 -36 16 0 27 20 27 51 0 13 7 19 23
19 20 0 23 -4 19 -35 -4 -30 -1 -35 16 -35 12 0 24 5 27 10 5 8 11 7 21 -1 8
-6 23 -9 34 -6 11 3 20 1 20 -4 0 -5 -11 -9 -25 -9 -28 0 -44 -25 -27 -42 14
-14 62 -1 62 17 0 18 39 40 63 36 13 -2 17 5 17 26 0 28 15 53 32 53 4 0 6
-17 5 -37 l-2 -37 49 -3 c28 -1 55 2 62 8 8 7 14 6 17 -3 3 -11 8 -11 26 0 12
7 21 8 21 2 0 -5 7 -10 16 -10 12 0 15 6 11 21 -6 23 1 49 13 49 4 0 7 -15 6
-32 l-1 -33 77 -1 c64 -1 80 2 94 17 20 23 11 38 -11 19 -21 -18 -28 -8 -16
23 7 19 7 28 -2 34 -36 22 -73 5 -93 -43 -19 -44 -26 -43 -22 4 3 33 1 37 -19
34 -13 -2 -23 2 -23 7 0 6 -6 11 -13 11 -9 0 -14 -12 -14 -30 0 -17 -8 -39
-17 -48 -17 -16 -18 -15 -14 28 3 39 0 45 -17 46 -38 2 -66 -16 -81 -51 -19
-45 -26 -44 -22 3 3 36 2 37 -29 36 -32 -2 -32 -2 -16 23 12 18 13 27 4 36
-15 15 -27 -2 -41 -58 -13 -49 -31 -85 -41 -85 -5 0 -4 12 1 26 6 14 10 36 10
49 0 20 -4 23 -27 20 -16 -2 -34 -4 -40 -4 -7 -1 -23 -20 -35 -43 -19 -37 -23
-40 -26 -21 -2 12 2 31 7 42 17 31 13 69 -9 81 -16 9 -25 4 -56 -30z m46 -21
c0 -15 -7 -19 -30 -19 -27 0 -30 2 -20 19 18 35 50 35 50 0z m100 -69 c-6 -12
-16 -20 -23 -17 -20 6 -18 26 5 49 20 20 23 21 26 6 2 -9 -2 -26 -8 -38z m241
18 c-7 -35 -28 -48 -37 -23 -6 15 20 55 36 55 4 0 5 -14 1 -32z m209 -24 c-7
-7 -16 -14 -21 -14 -15 0 -10 32 9 53 17 19 17 19 20 -2 2 -12 -2 -29 -8 -37z"/>
<path d="M914 279 c-12 -14 -15 -24 -9 -33 38 -51 46 -66 40 -76 -12 -20 -35
-10 -35 15 0 30 -15 33 -30 5 -24 -45 29 -77 81 -50 22 12 26 59 7 79 -10 11
-10 14 0 18 26 10 6 63 -23 63 -7 0 -20 -9 -31 -21z"/>
<path d="M1021 263 c-7 -16 -15 -52 -18 -80 -5 -45 -3 -53 11 -53 11 0 16 9
16 28 0 27 15 52 32 52 5 0 6 -16 2 -35 -5 -27 -3 -36 10 -41 9 -3 23 -1 30 5
10 8 16 9 21 1 8 -13 62 -13 70 0 13 21 22 9 21 -26 -2 -58 20 -52 28 7 8 62
21 89 41 89 22 0 18 -37 -5 -53 -24 -17 -16 -27 20 -27 25 0 69 34 58 45 -3 3
-11 -1 -18 -10 -20 -25 -29 -17 -17 15 14 37 3 50 -46 55 -34 3 -37 1 -43 -31
-3 -19 -10 -34 -15 -34 -5 0 -6 6 -3 13 5 14 -30 57 -47 57 -15 0 -59 -47 -59
-64 0 -8 -5 -18 -11 -21 -6 -5 -9 7 -7 32 3 37 2 38 -29 37 -31 -2 -32 -1 -17
22 15 22 12 44 -5 44 -4 0 -13 -12 -20 -27z m159 -58 c-6 -8 -9 -23 -5 -35 6
-18 3 -21 -11 -18 -25 4 -29 32 -9 52 21 20 42 22 25 1z"/>
</g>
</svg>
